<svg xmlns="http://www.w3.org/2000/svg" xmlns:svg="http://www.w3.org/2000/svg" id="svg2" width="707.858" height="227.056" version="1.1"><defs id="defs4"><marker id="TriangleOutL" orient="auto" refX="0" refY="0" style="overflow:visible"><path id="path3901" d="m 5.77,0 -8.65,5 0,-10 8.65,5 z" transform="scale(0.8,0.8)" style="fill-rule:evenodd;stroke:#000;stroke-width:1pt;marker-start:none"/></marker><marker id="Arrow1Lstart" orient="auto" refX="0" refY="0" style="overflow:visible"><path id="path3758" d="M 0,0 5,-5 -12.5,0 5,5 0,0 z" transform="matrix(0.8,0,0,0.8,10,0)" style="fill-rule:evenodd;stroke:#000;stroke-width:1pt;marker-start:none"/></marker><marker id="Arrow1Lend" orient="auto" refX="0" refY="0" style="overflow:visible"><path id="path3761" d="M 0,0 5,-5 -12.5,0 5,5 0,0 z" transform="matrix(-0.8,0,0,-0.8,-10,0)" style="fill-rule:evenodd;stroke:#000;stroke-width:1pt;marker-start:none"/></marker><marker id="Arrow1Lend-6" orient="auto" refX="0" refY="0" style="overflow:visible"><path id="path3761-8" d="M 0,0 5,-5 -12.5,0 5,5 0,0 z" transform="matrix(-0.8,0,0,-0.8,-10,0)" style="fill-rule:evenodd;stroke:#000;stroke-width:1pt;marker-start:none"/></marker><marker id="marker4943" orient="auto" refX="0" refY="0" style="overflow:visible"><path id="path4945" d="M 0,0 5,-5 -12.5,0 5,5 0,0 z" transform="matrix(-0.8,0,0,-0.8,-10,0)" style="fill-rule:evenodd;stroke:#000;stroke-width:1pt;marker-start:none"/></marker></defs><metadata id="metadata7"/><g id="layer1" transform="translate(-19.917992,-37.497308)"><path style="fill:#ff0;stroke:#000;stroke-width:1;stroke-linejoin:miter;stroke-miterlimit:4;stroke-opacity:1;stroke-dasharray:none;stroke-dashoffset:0" id="rect5970" d="m 401.53635,122.7282 0,15.34375 -71.875,0 0,25.90625 71.875,0 0,15.34375 28.28125,-28.28125 -28.28125,-28.3125 z"/><text style="font-size:12px;font-style:normal;font-variant:normal;font-weight:400;font-stretch:normal;line-height:125%;letter-spacing:0;word-spacing:0;fill:#000;fill-opacity:1;stroke:none;font-family:Arial;-inkscape-font-specification:Arial" id="text4407" x="340.739" y="155.314" xml:space="preserve"><tspan id="tspan4409" x="340.739" y="155.314">PCA rotation</tspan></text><flowRoot id="flowRoot4411" xml:space="preserve" style="font-size:12px;font-style:normal;font-variant:normal;font-weight:400;font-stretch:normal;line-height:125%;letter-spacing:0;word-spacing:0;fill:#000;fill-opacity:1;stroke:none;font-family:Arial;-inkscape-font-specification:Arial"><flowRegion id="flowRegion4413"><rect id="rect4415" width="460.952" height="304.402" x="-36.238" y="2.899"/></flowRegion><flowPara id="flowPara4417"/></flowRoot><g id="g5985" transform="translate(0,2.71252)"><path id="path4419" d="m 22.190972,152.30177 264.174698,0" style="fill:none;stroke:#000;stroke-width:1px;stroke-linecap:butt;stroke-linejoin:miter;stroke-opacity:1;marker-end:url(#Arrow1Lend)"/><path id="path4423" d="m 147.18638,261.34032 0,-226.055532" style="fill:none;stroke:#000;stroke-width:1px;stroke-linecap:butt;stroke-linejoin:miter;stroke-opacity:1;marker-end:url(#Arrow1Lend)"/></g><path style="fill:none;stroke:#000;stroke-width:1;stroke-linecap:butt;stroke-linejoin:miter;stroke-miterlimit:4;stroke-opacity:1;stroke-dasharray:1,2;stroke-dashoffset:0" id="path4791" d="M 20.417992,185.98848 293.45761,45.036203"/><path style="fill:#000;fill-opacity:1;fill-rule:nonzero;stroke:none" id="path4793" d="m 341.29953,297.95725 c 1.46879,0 2.65948,1.19069 2.65948,2.65948 0,1.46879 -1.19069,2.65948 -2.65948,2.65948 -1.46879,0 -2.65948,-1.19069 -2.65948,-2.65948 0,-1.46879 1.19069,-2.65948 2.65948,-2.65948 l 0,2.65948 z" transform="translate(-169.29136,-192.63957)"/><path style="fill:#000;fill-opacity:1;fill-rule:nonzero;stroke:none" id="path4793-5" d="m 341.29953,297.95725 c 1.46879,0 2.65948,1.19069 2.65948,2.65948 0,1.46879 -1.19069,2.65948 -2.65948,2.65948 -1.46879,0 -2.65948,-1.19069 -2.65948,-2.65948 0,-1.46879 1.19069,-2.65948 2.65948,-2.65948 l 0,2.65948 z" transform="translate(-161.31293,-197.07203)"/><path style="fill:#000;fill-opacity:1;fill-rule:nonzero;stroke:none" id="path4793-8" d="m 341.29953,297.95725 c 1.46879,0 2.65948,1.19069 2.65948,2.65948 0,1.46879 -1.19069,2.65948 -2.65948,2.65948 -1.46879,0 -2.65948,-1.19069 -2.65948,-2.65948 0,-1.46879 1.19069,-2.65948 2.65948,-2.65948 l 0,2.65948 z" transform="translate(-90.393546,-233.41822)"/><path style="fill:#000;fill-opacity:1;fill-rule:nonzero;stroke:none" id="path4793-3" d="m 341.29953,297.95725 c 1.46879,0 2.65948,1.19069 2.65948,2.65948 0,1.46879 -1.19069,2.65948 -2.65948,2.65948 -1.46879,0 -2.65948,-1.19069 -2.65948,-2.65948 0,-1.46879 1.19069,-2.65948 2.65948,-2.65948 l 0,2.65948 z" transform="translate(-108.12339,-224.2922)"/><path style="fill:#000;fill-opacity:1;fill-rule:nonzero;stroke:none" id="path4793-6" d="m 341.29953,297.95725 c 1.46879,0 2.65948,1.19069 2.65948,2.65948 0,1.46879 -1.19069,2.65948 -2.65948,2.65948 -1.46879,0 -2.65948,-1.19069 -2.65948,-2.65948 0,-1.46879 1.19069,-2.65948 2.65948,-2.65948 l 0,2.65948 z" transform="translate(-148.90204,-203.85127)"/><path style="fill:#000;fill-opacity:1;fill-rule:nonzero;stroke:none" id="path4793-7" d="m 341.29953,297.95725 c 1.46879,0 2.65948,1.19069 2.65948,2.65948 0,1.46879 -1.19069,2.65948 -2.65948,2.65948 -1.46879,0 -2.65948,-1.19069 -2.65948,-2.65948 0,-1.46879 1.19069,-2.65948 2.65948,-2.65948 l 0,2.65948 z" transform="translate(-124.96674,-215.68837)"/><path style="fill:#000;fill-opacity:1;fill-rule:nonzero;stroke:none" id="path4793-87" d="m 341.29953,297.95725 c 1.46879,0 2.65948,1.19069 2.65948,2.65948 0,1.46879 -1.19069,2.65948 -2.65948,2.65948 -1.46879,0 -2.65948,-1.19069 -2.65948,-2.65948 0,-1.46879 1.19069,-2.65948 2.65948,-2.65948 l 0,2.65948 z" transform="translate(-137.37764,-209.84722)"/><path style="fill:#000;fill-opacity:1;fill-rule:nonzero;stroke:none" id="path4793-2" d="m 341.29953,297.95725 c 1.46879,0 2.65948,1.19069 2.65948,2.65948 0,1.46879 -1.19069,2.65948 -2.65948,2.65948 -1.46879,0 -2.65948,-1.19069 -2.65948,-2.65948 0,-1.46879 1.19069,-2.65948 2.65948,-2.65948 l 0,2.65948 z" transform="translate(-98.945771,-229.03736)"/><path style="fill:#000;fill-opacity:1;fill-rule:nonzero;stroke:none" id="path4793-66" d="m 341.29953,297.95725 c 1.46879,0 2.65948,1.19069 2.65948,2.65948 0,1.46879 -1.19069,2.65948 -2.65948,2.65948 -1.46879,0 -2.65948,-1.19069 -2.65948,-2.65948 0,-1.46879 1.19069,-2.65948 2.65948,-2.65948 l 0,2.65948 z" transform="translate(-119.90889,-218.34785)"/><path style="fill:#000;fill-opacity:1;fill-rule:nonzero;stroke:none" id="path4793-29" d="m 341.29953,297.95725 c 1.46879,0 2.65948,1.19069 2.65948,2.65948 0,1.46879 -1.19069,2.65948 -2.65948,2.65948 -1.46879,0 -2.65948,-1.19069 -2.65948,-2.65948 0,-1.46879 1.19069,-2.65948 2.65948,-2.65948 l 0,2.65948 z" transform="translate(-59.679014,-249.42668)"/><path style="fill:#000;fill-opacity:1;fill-rule:nonzero;stroke:none" id="path4793-70" d="m 341.29953,297.95725 c 1.46879,0 2.65948,1.19069 2.65948,2.65948 0,1.46879 -1.19069,2.65948 -2.65948,2.65948 -1.46879,0 -2.65948,-1.19069 -2.65948,-2.65948 0,-1.46879 1.19069,-2.65948 2.65948,-2.65948 l 0,2.65948 z" transform="translate(-130.5984,-213.0805)"/><path style="fill:#0f0;fill-opacity:1;fill-rule:nonzero;stroke:#000;stroke-width:.5;stroke-linejoin:miter;stroke-miterlimit:4;stroke-opacity:1;stroke-dasharray:none" id="path4793-29-3" d="m 341.29953,297.95725 c 1.46879,0 2.65948,1.19069 2.65948,2.65948 0,1.46879 -1.19069,2.65948 -2.65948,2.65948 -1.46879,0 -2.65948,-1.19069 -2.65948,-2.65948 0,-1.43448 1.13764,-2.61047 2.57133,-2.65802 l 0.0881,2.65802 z" transform="translate(-103.54145,-226.59482)"/><path style="fill:red;fill-opacity:1;fill-rule:nonzero;stroke:#000;stroke-width:.5;stroke-miterlimit:4;stroke-opacity:1;stroke-dasharray:none" id="path4793-29-3-4" d="m 341.29953,297.95725 c 1.46879,0 2.65948,1.19069 2.65948,2.65948 0,1.46879 -1.19069,2.65948 -2.65948,2.65948 -1.46879,0 -2.65948,-1.19069 -2.65948,-2.65948 0,-1.46879 1.19069,-2.65948 2.65948,-2.65948 l 0,2.65948 z" transform="translate(-88.554624,-176.99892)"/><g id="g5989" transform="translate(0,-2.7125215)"><path id="path4419-1" d="m 463.10152,157.72681 264.1747,0" style="fill:none;stroke:#000;stroke-width:1px;stroke-linecap:butt;stroke-linejoin:miter;stroke-opacity:1;marker-end:url(#Arrow1Lend)"/><path id="path4423-8" d="m 588.09693,266.76536 0,-226.055529" style="fill:none;stroke:#000;stroke-width:1px;stroke-linecap:butt;stroke-linejoin:miter;stroke-opacity:1;marker-end:url(#Arrow1Lend)"/></g><path style="fill:#000;fill-opacity:1;fill-rule:nonzero;stroke:none" id="path4793-295" d="m 341.29953,297.95725 c 1.46879,0 2.65948,1.19069 2.65948,2.65948 0,1.46879 -1.19069,2.65948 -2.65948,2.65948 -1.46879,0 -2.65948,-1.19069 -2.65948,-2.65948 0,-1.46879 1.19069,-2.65948 2.65948,-2.65948 l 0,2.65948 z" transform="matrix(0.89273166,0.45058871,-0.45058871,0.89273166,366.08468,-266.24255)"/><path style="fill:#000;fill-opacity:1;fill-rule:nonzero;stroke:none" id="path4793-5-4" d="m 341.29953,297.95725 c 1.46879,0 2.65948,1.19069 2.65948,2.65948 0,1.46879 -1.19069,2.65948 -2.65948,2.65948 -1.46879,0 -2.65948,-1.19069 -2.65948,-2.65948 0,-1.46879 1.19069,-2.65948 2.65948,-2.65948 l 0,2.65948 z" transform="matrix(0.89273166,0.45058871,-0.45058871,0.89273166,375.20449,-266.60456)"/><path style="fill:#000;fill-opacity:1;fill-rule:nonzero;stroke:none" id="path4793-8-6" d="m 341.29953,297.95725 c 1.46879,0 2.65948,1.19069 2.65948,2.65948 0,1.46879 -1.19069,2.65948 -2.65948,2.65948 -1.46879,0 -2.65948,-1.19069 -2.65948,-2.65948 0,-1.46879 1.19069,-2.65948 2.65948,-2.65948 l 0,2.65948 z" transform="matrix(0.89273166,0.45058871,-0.45058871,0.89273166,454.89365,-267.09648)"/><path style="fill:#000;fill-opacity:1;fill-rule:nonzero;stroke:none" id="path4793-3-2" d="m 341.29953,297.95725 c 1.46879,0 2.65948,1.19069 2.65948,2.65948 0,1.46879 -1.19069,2.65948 -2.65948,2.65948 -1.46879,0 -2.65948,-1.19069 -2.65948,-2.65948 0,-1.46879 1.19069,-2.65948 2.65948,-2.65948 l 0,2.65948 z" transform="matrix(0.89273166,0.45058871,-0.45058871,0.89273166,434.95358,-266.93826)"/><path style="fill:#000;fill-opacity:1;fill-rule:nonzero;stroke:none" id="path4793-6-7" d="m 341.29953,297.95725 c 1.46879,0 2.65948,1.19069 2.65948,2.65948 0,1.46879 -1.19069,2.65948 -2.65948,2.65948 -1.46879,0 -2.65948,-1.19069 -2.65948,-2.65948 0,-1.46879 1.19069,-2.65948 2.65948,-2.65948 l 0,2.65948 z" transform="matrix(0.89273166,0.45058871,-0.45058871,0.89273166,389.33874,-267.0644)"/><path style="fill:#000;fill-opacity:1;fill-rule:nonzero;stroke:none" id="path4793-7-6" d="m 341.29953,297.95725 c 1.46879,0 2.65948,1.19069 2.65948,2.65948 0,1.46879 -1.19069,2.65948 -2.65948,2.65948 -1.46879,0 -2.65948,-1.19069 -2.65948,-2.65948 0,-1.46879 1.19069,-2.65948 2.65948,-2.65948 l 0,2.65948 z" transform="matrix(0.89273166,0.45058871,-0.45058871,0.89273166,416.0402,-266.84677)"/><path style="fill:#000;fill-opacity:1;fill-rule:nonzero;stroke:none" id="path4793-87-7" d="m 341.29953,297.95725 c 1.46879,0 2.65948,1.19069 2.65948,2.65948 0,1.46879 -1.19069,2.65948 -2.65948,2.65948 -1.46879,0 -2.65948,-1.19069 -2.65948,-2.65948 0,-1.46879 1.19069,-2.65948 2.65948,-2.65948 l 0,2.65948 z" transform="matrix(0.89273166,0.45058871,-0.45058871,0.89273166,402.32864,-267.22441)"/><path style="fill:#000;fill-opacity:1;fill-rule:nonzero;stroke:none" id="path4793-2-1" d="m 341.29953,297.95725 c 1.46879,0 2.65948,1.19069 2.65948,2.65948 0,1.46879 -1.19069,2.65948 -2.65948,2.65948 -1.46879,0 -2.65948,-1.19069 -2.65948,-2.65948 0,-1.46879 1.19069,-2.65948 2.65948,-2.65948 l 0,2.65948 z" transform="matrix(0.89273166,0.45058871,-0.45058871,0.89273166,445.28485,-267.03908)"/><path style="fill:#000;fill-opacity:1;fill-rule:nonzero;stroke:none" id="path4793-66-7" d="m 341.29953,297.95725 c 1.46879,0 2.65948,1.19069 2.65948,2.65948 0,1.46879 -1.19069,2.65948 -2.65948,2.65948 -1.46879,0 -2.65948,-1.19069 -2.65948,-2.65948 0,-1.46879 1.19069,-2.65948 2.65948,-2.65948 l 0,2.65948 z" transform="matrix(0.89273166,0.45058871,-0.45058871,0.89273166,421.75384,-266.94197)"/><path style="fill:#000;fill-opacity:1;fill-rule:nonzero;stroke:none" id="path4793-29-1" d="m 341.29953,297.95725 c 1.46879,0 2.65948,1.19069 2.65948,2.65948 0,1.46879 -1.19069,2.65948 -2.65948,2.65948 -1.46879,0 -2.65948,-1.19069 -2.65948,-2.65948 0,-1.46879 1.19069,-2.65948 2.65948,-2.65948 l 0,2.65948 z" transform="matrix(0.89273166,0.45058871,-0.45058871,0.89273166,489.52672,-267.54812)"/><path style="fill:#000;fill-opacity:1;fill-rule:nonzero;stroke:none" id="path4793-70-8" d="m 341.29953,297.95725 c 1.46879,0 2.65948,1.19069 2.65948,2.65948 0,1.46879 -1.19069,2.65948 -2.65948,2.65948 -1.46879,0 -2.65948,-1.19069 -2.65948,-2.65948 0,-1.46879 1.19069,-2.65948 2.65948,-2.65948 l 0,2.65948 z" transform="matrix(0.89273166,0.45058871,-0.45058871,0.89273166,409.83756,-267.05621)"/><path style="fill:#0f0;fill-opacity:1;fill-rule:nonzero;stroke:#000;stroke-width:.5;stroke-linejoin:miter;stroke-miterlimit:4;stroke-opacity:1;stroke-dasharray:none" id="path4793-29-3-6" d="m 341.29953,297.95725 c 1.46879,0 2.65948,1.19069 2.65948,2.65948 0,1.46879 -1.19069,2.65948 -2.65948,2.65948 -1.46879,0 -2.65948,-1.19069 -2.65948,-2.65948 0,-1.43448 1.13764,-2.61047 2.57133,-2.65802 l 0.0881,2.65802 z" transform="matrix(0.89273166,0.45058871,-0.45058871,0.89273166,440.08156,-266.92931)"/><path style="fill:red;fill-opacity:1;fill-rule:nonzero;stroke:#000;stroke-width:.5;stroke-miterlimit:4;stroke-opacity:1;stroke-dasharray:none" id="path4793-29-3-4-8" d="m 341.29953,297.95725 c 1.46879,0 2.65948,1.19069 2.65948,2.65948 0,1.46879 -1.19069,2.65948 -2.65948,2.65948 -1.46879,0 -2.65948,-1.19069 -2.65948,-2.65948 0,-1.46879 1.19069,-2.65948 2.65948,-2.65948 l 0,2.65948 z" transform="matrix(0.89273166,0.45058871,-0.45058871,0.89273166,431.11341,-215.90059)"/><text style="font-size:12px;font-style:normal;font-variant:normal;font-weight:400;font-stretch:normal;line-height:125%;letter-spacing:0;word-spacing:0;fill:#000;fill-opacity:1;stroke:none;font-family:Arial;-inkscape-font-specification:Arial" id="text3032" x="276.245" y="173.431" xml:space="preserve"><tspan id="tspan3034" x="276.245" y="173.431">X</tspan></text><text style="font-size:12px;font-style:normal;font-variant:normal;font-weight:400;font-stretch:normal;line-height:125%;letter-spacing:0;word-spacing:0;fill:#000;fill-opacity:1;stroke:none;font-family:Arial;-inkscape-font-specification:Arial" id="text3036" x="130.301" y="52.676" xml:space="preserve"><tspan id="tspan3038" x="130.301" y="52.676">Y</tspan></text><text style="font-size:12px;font-style:normal;font-variant:normal;font-weight:400;font-stretch:normal;line-height:125%;letter-spacing:0;word-spacing:0;fill:#000;fill-opacity:1;stroke:none;font-family:Arial;-inkscape-font-specification:Arial" id="text3032-3" x="715.622" y="173.484" xml:space="preserve"><tspan id="tspan3034-1" x="715.622" y="173.484">X</tspan></text><text style="font-size:12px;font-style:normal;font-variant:normal;font-weight:400;font-stretch:normal;line-height:125%;letter-spacing:0;word-spacing:0;fill:#000;fill-opacity:1;stroke:none;font-family:Arial;-inkscape-font-specification:Arial" id="text3036-7" x="569.679" y="52.729" xml:space="preserve"><tspan id="tspan3038-5" x="569.679" y="52.729">Y</tspan></text></g></svg>